<svg version="1.2" xmlns="http://www.w3.org/2000/svg" viewBox="0 0 154 38" width="154" height="38">
	<title>logo-svg</title>
	<style>
		.s0 { fill: #308a7d } 
	</style>
	<path id="Layer" class="s0" d="m26.4 9c-4.9 0-4.6 3.6-2 4.8 2.8 1.1 2.4 1 5.8 2.6 2.8 1.6 4.6 3.6 4.7 6.5v-15.5c-0.2 0.4-1.5 3.5-1.6 3.7-1.6-0.7-4.5-2.3-6.9-2.1z"/>
	<path id="Layer" class="s0" d="m0 4.7h4.3c0 0 9.3 11.8 15.1 18.6 6.7 6.5 14.7-0.2 9.3-3-5-2.5-8.9-2.8-10.2-6.8-1.6-7.4 4.4-9 8.6-8.8 3.9 0.2 6.2 2 7.8 2.6v-7.3h-34.9v4.7z"/>
	<path id="Layer" class="s0" d="m34.8 23.9c-0.3 2.7-3.6 6.4-8.8 6.4-7.6 0-9.9-4.4-12-7-2.6-3.1-9.7-11.8-9.7-11.8v18.8h-4.3v4.7h34.9v-11.7q0 0.3-0.1 0.6z"/>
	<path id="Design System" fill-rule="evenodd" class="s0" d="m46.4 34h-4.2v-12.3h4.2q2.9 0 3.9 1.4 1 1.5 1 4.5 0 1.6-0.2 2.7-0.2 1.1-0.7 2-1 1.7-4 1.7zm2.9-6.4q0-2.2-0.6-3.2-0.5-1-2.3-1h-2.2v8.8h2.2q1.8 0 2.4-1.3 0.3-0.6 0.4-1.4 0.1-0.7 0.1-1.9zm10.5 4.8l0.5-0.1 0.1 1.5q-2.1 0.4-3.7 0.4-1.9 0-2.8-1.1-0.9-1.1-0.9-3.5 0-4.8 3.9-4.8 3.8 0 3.8 4.1l-0.1 1.4h-5.6q0 1.1 0.5 1.7 0.4 0.5 1.7 0.5 1.3 0 2.6-0.1zm-4.8-3.6h3.8q0-1.3-0.5-1.8-0.4-0.6-1.4-0.6-1 0-1.5 0.6-0.4 0.6-0.4 1.8zm13.8-3.6v1.7q-2.1-0.3-3.1-0.3-0.9 0-1.3 0.2-0.4 0.2-0.4 0.7 0 0.5 0.4 0.7 0.5 0.2 1.9 0.5 1.6 0.2 2.2 0.8 0.6 0.5 0.6 1.9 0 1.5-0.9 2.1-0.9 0.7-2.6 0.7-1.1 0-2.8-0.3l-0.6-0.1 0.1-1.6q2.2 0.3 3.1 0.3 1 0 1.4-0.3 0.4-0.2 0.4-0.8 0-0.5-0.4-0.7-0.4-0.2-1.9-0.4-1.4-0.3-2.1-0.8-0.7-0.5-0.7-1.9 0-1.4 0.9-2.1 1-0.7 2.5-0.7 1.1 0 2.8 0.3zm4.1 8.8h-2v-9h2zm0-10.5h-2v-2.1h2zm10.2 11.8q0 2.9-4.2 2.9-2.1 0-3.1-0.5-1-0.6-1-2.1 0-0.6 0.4-1.1 0.3-0.5 1-1-0.6-0.4-0.6-1.4 0-0.3 0.5-1.1l0.2-0.3q-1.3-0.8-1.3-2.7 0-1.6 0.9-2.4 1-0.7 2.7-0.7 0.7 0 1.5 0.2h0.3l2.8-0.1v1.6l-1.5-0.1q0.5 0.7 0.5 1.5 0 1.8-0.9 2.4-0.9 0.7-2.8 0.7-0.5 0-0.8-0.1-0.2 0.7-0.2 1 0 0.3 0.3 0.4 0.3 0.2 1.6 0.2 2.1 0 2.9 0.6 0.8 0.5 0.8 2.1zm-6.3 0.1q0 0.7 0.5 0.9 0.5 0.3 1.7 0.3 2.2 0 2.2-1.2 0-0.7-0.4-0.9-0.4-0.2-1.6-0.2l-1.7-0.1q-0.4 0.3-0.6 0.6-0.1 0.2-0.1 0.6zm0.1-7.4q0 0.8 0.4 1.2 0.4 0.4 1.3 0.4 0.9 0 1.2-0.4 0.4-0.4 0.4-1.2 0-0.8-0.4-1.2-0.4-0.4-1.2-0.4-1.7 0-1.7 1.6zm9.8-0.9v6.9h-2v-8.9h1.9v0.5q1.4-0.7 2.5-0.7 1.8 0 2.5 1 0.6 1 0.6 3.3v4.8h-1.9v-4.7q0-1.5-0.3-2.1-0.3-0.6-1.3-0.6-0.9 0-1.8 0.4zm15.7-3.8q-2.3 0-2.3 1.6 0 0.8 0.5 1.2 0.6 0.3 2.4 0.8 1.9 0.5 2.6 1.2 0.8 0.7 0.8 2.3 0 1.9-1.1 2.9-1.1 0.9-3 0.9-1.6 0-3.4-0.3l-0.7-0.2 0.2-1.6q2.5 0.4 3.7 0.4 2.3 0 2.3-2 0-0.8-0.5-1.1-0.6-0.4-2.3-0.8-1.8-0.5-2.6-1.3-0.9-0.7-0.9-2.4 0-1.7 1.1-2.5 1.1-0.9 3-0.9 1.4 0 3.3 0.3l0.6 0.1-0.2 1.7q-2.5-0.3-3.5-0.3zm7.3 10.7l-2.4-8.9h1.9l1.9 7.3h0.5l1.9-7.3h2l-3.4 12.8h-2l1.1-3.9zm13.5-8.7l-0.1 1.6q-2.1-0.3-3-0.3-1 0-1.4 0.2-0.3 0.3-0.3 0.7 0 0.5 0.4 0.7 0.4 0.2 1.9 0.5 1.5 0.3 2.1 0.8 0.6 0.6 0.6 2 0 1.4-0.9 2.1-0.9 0.6-2.6 0.6-1.1 0-2.8-0.3l-0.5-0.1v-1.6q2.2 0.3 3.1 0.3 1 0 1.4-0.2 0.4-0.3 0.4-0.8 0-0.6-0.4-0.8-0.4-0.2-1.8-0.4-1.5-0.3-2.2-0.8-0.7-0.5-0.7-1.9 0-1.4 1-2 0.9-0.7 2.4-0.7 1.1 0 2.8 0.3zm7-0.3v1.7h-2.5v4q0 1.1 0.2 1.4 0.1 0.4 0.8 0.4l1.5-0.1 0.1 1.6q-1.2 0.2-1.9 0.2-1.5 0-2.1-0.7-0.5-0.7-0.5-2.6v-4.2h-1.2v-1.7h1.2v-2.6h1.9v2.6zm8 7.4h0.5l0.1 1.4q-2.1 0.4-3.7 0.4-2 0-2.8-1.1-0.9-1.1-0.9-3.5 0-4.8 3.9-4.8 3.8 0 3.8 4.2l-0.2 1.4h-5.5q0 1.1 0.5 1.6 0.4 0.5 1.7 0.5 1.3 0 2.6-0.1zm-4.8-3.5h3.7q0-1.4-0.4-1.9-0.4-0.5-1.4-0.5-1 0-1.5 0.5-0.4 0.6-0.4 1.9zm9.5-1.8v6.9h-1.9v-9h1.9v0.6q1.3-0.8 2.3-0.8 1.6 0 2.3 0.9 1.6-0.9 3.3-0.9 1.6 0 2.2 1.1 0.7 0.9 0.7 3.3v4.8h-1.9v-4.7q0-1.5-0.3-2.1-0.3-0.6-1.3-0.6-0.8 0-1.7 0.3l-0.3 0.2q0.1 0.3 0.1 2.3v4.6h-1.9v-4.6q0-1.6-0.3-2.2-0.3-0.6-1.2-0.6-0.9 0-1.7 0.3z"/>
	<path id="Net Service" fill-rule="evenodd" class="s0" d="m45 16h-2.9v-14.4h4.9l3.5 11.9h0.2v-11.9h2.9v14.4h-4.8l-3.6-11.9h-0.2zm13.7-4.1q0 1 0.5 1.5 0.5 0.4 1.5 0.4 1.9 0 3.5-0.1l0.6-0.1v2.1q-2.4 0.6-4.4 0.6-2.4 0-3.5-1.3-1-1.3-1-4.1 0-5.7 4.6-5.7 4.7 0 4.7 4.8l-0.3 1.9zm0-2.1h3.7q0-1.3-0.4-1.8-0.4-0.5-1.4-0.5-1 0-1.4 0.5-0.5 0.6-0.5 1.8zm14.4-4.4v2.5h-2.6v4.3q0 0.6 0 0.9 0.1 0.3 0.2 0.5 0.3 0.1 0.7 0.1h1.6l0.1 2.3q-1.4 0.3-2.1 0.3-2 0-2.7-0.9-0.7-0.8-0.7-3.1v-4.4h-1.2v-2.5h1.2v-2.9h2.9v2.9zm11.2-1.5q-2.3 0-2.3 1.5 0 0.7 0.5 1.1 0.6 0.3 2.7 1 2.1 0.7 3 1.6 0.8 0.8 0.8 2.6 0 2.3-1.4 3.4-1.3 1.2-3.6 1.2-1.6 0-4-0.5l-0.8-0.2 0.3-2.2q2.9 0.3 4.4 0.3 2.2 0 2.2-1.8 0-0.7-0.5-1.1-0.5-0.4-2.1-0.8-2.4-0.7-3.4-1.7-1-0.9-1-2.7 0-2.1 1.3-3.2 1.3-1 3.6-1 1.5 0 4 0.4l0.7 0.1-0.2 2.4q-3-0.4-4.2-0.4zm9.2 8q0 1 0.5 1.5 0.5 0.4 1.4 0.4 2 0 3.5-0.1l0.6-0.1 0.1 2.1q-2.5 0.6-4.5 0.6-2.3 0-3.4-1.3-1.1-1.3-1.1-4.1 0-5.7 4.7-5.7 4.6 0 4.6 4.8l-0.2 1.9zm0-2.1h3.6q0-1.3-0.4-1.8-0.4-0.5-1.4-0.5-1 0-1.4 0.5-0.4 0.6-0.4 1.8zm11.3 6.2h-2.8v-10.6h2.8v1.2q1.8-1.1 3.4-1.4v2.8q-1.7 0.4-3 0.8l-0.4 0.1zm6.6 0l-2.6-10.6h3l1.7 8.2h0.6l1.8-8.2h2.9l-2.6 10.6zm11.9 0h-2.9v-10.6h2.9zm0-11.9h-2.9v-2.9h2.9zm6.6 1.1q1.1 0 2.8 0.3l0.5 0.2v2.2q-1.7-0.1-2.5-0.1-1.5 0-2 0.6-0.4 0.6-0.4 2.3 0 1.8 0.4 2.4 0.5 0.7 2 0.7l2.5-0.2v2.3q-2.2 0.4-3.4 0.4-2.4 0-3.4-1.3-1-1.3-1-4.3 0-2.9 1-4.2 1.1-1.3 3.5-1.3zm7.7 6.8q0 0.9 0.5 1.4 0.5 0.4 1.4 0.4 2 0 3.6-0.1l0.6-0.1v2.1q-2.4 0.6-4.4 0.6-2.4 0-3.5-1.3-1.1-1.2-1.1-4.1 0-5.7 4.7-5.7 4.6 0 4.6 4.8l-0.2 2zm0-2.2h3.7q0-1.3-0.4-1.8-0.4-0.5-1.5-0.5-1 0-1.4 0.6-0.4 0.5-0.4 1.7z"/>
</svg>